<svg xmlns="http://www.w3.org/2000/svg" viewBox="0 0 455 421" preserveAspectRatio="xMidYMid meet"><path d="M123.0 0.0L125.0 4.0L125.0 9.0L124.0 14.0L122.0 19.0L120.0 24.0L118.0 29.0L116.0 34.0L113.0 39.0L110.0 44.0L107.0 49.0L104.0 54.0L105.0 57.0L110.0 52.0L114.0 47.0L117.0 42.0L121.0 37.0L125.0 32.0L129.0 27.0L134.0 22.0L138.0 17.0L143.0 16.0L144.0 21.0L143.0 26.0L142.0 31.0L141.0 36.0L139.0 41.0L138.0 46.0L141.0 47.0L146.0 44.0L151.0 40.0L156.0 36.0L158.0 39.0L159.0 44.0L159.0 49.0L158.0 54.0L155.0 59.0L152.0 64.0L153.0 69.0L156.0 73.0L157.0 78.0L156.0 83.0L155.0 88.0L157.0 92.0L159.0 97.0L159.0 102.0L158.0 107.0L157.0 112.0L159.0 117.0L160.0 122.0L160.0 127.0L159.0 132.0L159.0 137.0L162.0 142.0L165.0 147.0L167.0 150.0L172.0 147.0L177.0 143.0L182.0 140.0L187.0 136.0L192.0 133.0L197.0 130.0L202.0 128.0L207.0 126.0L212.0 124.0L217.0 123.0L222.0 123.0L227.0 123.0L232.0 122.0L237.0 122.0L242.0 121.0L247.0 121.0L252.0 120.0L257.0 119.0L262.0 118.0L267.0 117.0L272.0 116.0L277.0 115.0L282.0 114.0L287.0 114.0L292.0 113.0L297.0 112.0L302.0 110.0L307.0 109.0L312.0 108.0L317.0 107.0L322.0 105.0L327.0 104.0L332.0 103.0L337.0 101.0L342.0 99.0L347.0 97.0L352.0 95.0L357.0 93.0L362.0 91.0L367.0 88.0L372.0 84.0L377.0 79.0L381.0 74.0L384.0 69.0L388.0 64.0L390.0 65.0L388.0 70.0L386.0 75.0L383.0 80.0L380.0 85.0L376.0 90.0L372.0 95.0L376.0 95.0L381.0 92.0L386.0 88.0L391.0 85.0L396.0 81.0L401.0 76.0L405.0 71.0L409.0 68.0L408.0 73.0L405.0 78.0L402.0 83.0L398.0 88.0L394.0 93.0L389.0 98.0L386.0 103.0L391.0 101.0L396.0 99.0L401.0 96.0L406.0 92.0L411.0 88.0L416.0 84.0L420.0 79.0L424.0 74.0L428.0 74.0L429.0 79.0L427.0 84.0L426.0 89.0L423.0 94.0L427.0 95.0L432.0 94.0L437.0 92.0L442.0 89.0L447.0 86.0L452.0 82.0L455.0 83.0L452.0 88.0L448.0 93.0L445.0 98.0L446.0 102.0L451.0 102.0L451.0 106.0L446.0 111.0L441.0 115.0L436.0 117.0L431.0 120.0L426.0 122.0L421.0 122.0L416.0 123.0L411.0 123.0L410.0 126.0L415.0 128.0L420.0 130.0L424.0 132.0L424.0 137.0L419.0 142.0L414.0 144.0L409.0 146.0L404.0 147.0L399.0 148.0L394.0 148.0L389.0 149.0L384.0 150.0L388.0 153.0L393.0 155.0L398.0 156.0L401.0 158.0L398.0 163.0L394.0 168.0L389.0 172.0L384.0 175.0L379.0 177.0L374.0 177.0L369.0 177.0L364.0 176.0L359.0 175.0L354.0 174.0L349.0 172.0L344.0 172.0L349.0 176.0L354.0 178.0L359.0 182.0L357.0 187.0L352.0 192.0L347.0 194.0L342.0 195.0L337.0 195.0L332.0 195.0L327.0 194.0L322.0 193.0L321.0 196.0L325.0 201.0L324.0 206.0L321.0 211.0L316.0 215.0L311.0 216.0L306.0 216.0L301.0 212.0L298.0 213.0L300.0 218.0L296.0 223.0L292.0 227.0L287.0 228.0L282.0 228.0L277.0 229.0L272.0 229.0L269.0 234.0L266.0 239.0L261.0 242.0L256.0 243.0L251.0 244.0L246.0 241.0L242.0 241.0L241.0 246.0L239.0 251.0L235.0 256.0L230.0 259.0L225.0 261.0L220.0 263.0L220.0 268.0L221.0 273.0L224.0 278.0L224.0 283.0L227.0 288.0L226.0 289.0L224.0 290.0L226.0 295.0L231.0 297.0L236.0 298.0L241.0 299.0L246.0 300.0L251.0 301.0L256.0 302.0L261.0 303.0L266.0 304.0L271.0 305.0L276.0 306.0L281.0 307.0L286.0 308.0L291.0 309.0L296.0 311.0L301.0 311.0L306.0 312.0L311.0 313.0L316.0 314.0L321.0 315.0L326.0 316.0L330.0 320.0L327.0 323.0L322.0 325.0L317.0 327.0L320.0 330.0L325.0 333.0L329.0 337.0L331.0 342.0L329.0 347.0L325.0 352.0L320.0 354.0L315.0 353.0L310.0 351.0L305.0 350.0L307.0 355.0L311.0 359.0L315.0 364.0L317.0 369.0L315.0 374.0L310.0 378.0L305.0 378.0L300.0 378.0L295.0 378.0L290.0 377.0L286.0 379.0L287.0 384.0L287.0 389.0L286.0 394.0L283.0 399.0L278.0 402.0L273.0 401.0L268.0 398.0L263.0 396.0L258.0 393.0L253.0 392.0L253.0 397.0L249.0 401.0L244.0 403.0L239.0 402.0L234.0 401.0L229.0 398.0L224.0 395.0L219.0 394.0L214.0 396.0L209.0 393.0L205.0 390.0L200.0 386.0L195.0 388.0L190.0 387.0L185.0 383.0L181.0 378.0L178.0 373.0L176.0 368.0L171.0 365.0L166.0 368.0L161.0 370.0L156.0 372.0L151.0 374.0L146.0 376.0L141.0 378.0L136.0 381.0L132.0 385.0L132.0 390.0L132.0 395.0L133.0 400.0L132.0 405.0L131.0 410.0L127.0 414.0L127.0 419.0L125.0 418.0L125.0 413.0L122.0 410.0L119.0 415.0L119.0 420.0L117.0 417.0L117.0 412.0L117.0 407.0L120.0 402.0L115.0 402.0L114.0 407.0L112.0 402.0L108.0 400.0L105.0 405.0L106.0 410.0L111.0 414.0L106.0 412.0L103.0 407.0L99.0 403.0L99.0 398.0L97.0 393.0L98.0 388.0L98.0 383.0L101.0 378.0L106.0 376.0L111.0 373.0L116.0 371.0L121.0 368.0L126.0 366.0L131.0 364.0L134.0 359.0L134.0 354.0L132.0 349.0L129.0 346.0L127.0 341.0L126.0 336.0L122.0 331.0L119.0 326.0L116.0 321.0L113.0 316.0L112.0 311.0L111.0 306.0L111.0 301.0L110.0 296.0L106.0 291.0L101.0 286.0L96.0 281.0L92.0 276.0L88.0 271.0L84.0 266.0L81.0 261.0L78.0 256.0L74.0 251.0L71.0 246.0L68.0 241.0L65.0 236.0L62.0 231.0L60.0 226.0L55.0 224.0L50.0 223.0L45.0 222.0L40.0 220.0L35.0 219.0L30.0 219.0L25.0 221.0L20.0 222.0L15.0 224.0L10.0 225.0L5.0 227.0L0.0 230.0L1.0 225.0L3.0 220.0L6.0 215.0L10.0 210.0L13.0 205.0L18.0 200.0L21.0 195.0L21.0 190.0L24.0 185.0L27.0 180.0L30.0 175.0L35.0 170.0L40.0 166.0L45.0 164.0L50.0 164.0L55.0 163.0L55.0 158.0L53.0 153.0L52.0 148.0L52.0 143.0L51.0 138.0L50.0 133.0L49.0 128.0L47.0 123.0L44.0 118.0L41.0 113.0L37.0 108.0L35.0 103.0L33.0 98.0L32.0 93.0L30.0 88.0L35.0 86.0L39.0 85.0L39.0 80.0L39.0 75.0L39.0 70.0L39.0 65.0L40.0 60.0L41.0 55.0L44.0 50.0L46.0 45.0L49.0 40.0L52.0 35.0L55.0 30.0L59.0 25.0L64.0 21.0L69.0 20.0L71.0 24.0L69.0 29.0L67.0 34.0L65.0 39.0L63.0 44.0L61.0 49.0L60.0 54.0L60.0 59.0L63.0 54.0L65.0 49.0L68.0 44.0L70.0 39.0L73.0 34.0L76.0 29.0L79.0 24.0L82.0 19.0L85.0 14.0L88.0 9.0L92.0 4.0L96.0 2.0L97.0 7.0L97.0 12.0L96.0 17.0L96.0 22.0L95.0 27.0L93.0 32.0L93.0 37.0L97.0 32.0L101.0 27.0L104.0 22.0L108.0 17.0L111.0 12.0L115.0 7.0L119.0 2.0L123.0 0.0Z" fill="currentColor"></path></svg>